<svg xmlns="http://www.w3.org/2000/svg" viewBox="0 0 410 404.3"><path d="M399.6 60.4 215.4 2.4c-9.5-3.1-19.7-3.1-29.2 0L10.8 60.4C3.6 62.7-1.1 69.6.2 77.4c0 .9.2 1.8.4 2.7v242.7c-.2 7.9 4.5 15.5 11.7 18.3l174.8 56.5c3 1 6.1 1.4 9.2 1.4s6.2-.5 9.2-1.4l175.8-56.8c7.3-2.4 12.1-9.7 11.7-17.3V80.2c.2-8.3-5.3-16.6-13.4-19.8Zm-39.1 209.6-121.4 39.2-121.8-39.2v-82.8l121.8 39.4 121.4-39.4v82.8Zm0-114.7-121.4 39.2L117.3 155l-78.8-25.4 90.3-29.1 81.2 26.2 83.7-26.9v26.4Z" fill="#BD34FE"/><path d="M399.6 60.4 215.4 2.4c-9.5-3.1-19.7-3.1-29.2 0L10.8 60.4C3.6 62.7-1.1 69.6.2 77.4c0 .9.2 1.8.4 2.7v242.7c-.2 7.9 4.5 15.5 11.7 18.3l174.8 56.5c3 1 6.1 1.4 9.2 1.4s6.2-.5 9.2-1.4l175.8-56.8c7.3-2.4 12.1-9.7 11.7-17.3V80.2c.2-8.3-5.3-16.6-13.4-19.8Zm-39.1 209.6-121.4 39.2-121.8-39.2v-82.8l121.8 39.4 121.4-39.4v82.8Zm0-114.7-121.4 39.2L117.3 155l-78.8-25.4 90.3-29.1 81.2 26.2 83.7-26.9v26.4Z" fill="url(#a)"/><defs><linearGradient id="a" x1="205.2" x2="238.8" y1="246.4" y2="279.4" gradientUnits="userSpaceOnUse"><stop stop-color="#FF80FF"/><stop offset="1" stop-color="#BD34FE"/></linearGradient></defs></svg>
